<svg width="92" height="32" viewBox="0 0 92 32" fill="none" xmlns="http://www.w3.org/2000/svg">
<g clip-path="url(#clip0_251_128)">
<mask id="mask0_251_128" style="mask-type:luminance" maskUnits="userSpaceOnUse" x="0" y="0" width="92" height="32">
<path d="M0 0H92V32H0V0Z" fill="white"/>
</mask>
<g mask="url(#mask0_251_128)">
<path d="M76.083 28.4189C73.2546 28.4189 70.6474 27.4563 68.5626 25.8429C70.6783 23.1264 71.9446 19.7101 71.9446 16C71.9446 12.2902 70.6783 8.87392 68.5626 6.15712C70.6474 4.544 73.2546 3.58112 76.083 3.58112C82.8952 3.58112 88.4375 9.15232 88.4375 16C88.4375 22.848 82.8952 28.4189 76.083 28.4189ZM48.5069 25.8429C50.6229 23.1264 51.8893 19.7101 51.8893 16C51.8893 12.2902 50.6229 8.87392 48.5072 6.15712C50.5917 4.544 53.1996 3.58112 56.0277 3.58112C58.8561 3.58112 61.4633 4.544 63.5481 6.15712C61.4324 8.87392 60.1661 12.2902 60.1661 16C60.1661 19.7101 61.4324 23.1264 63.5481 25.8429C61.4633 27.4563 58.8561 28.4189 56.0277 28.4189C53.1996 28.4189 50.5917 27.4563 48.5069 25.8429ZM28.4516 25.8429C30.5676 23.1264 31.8339 19.7101 31.8339 16C31.8339 12.2902 30.5676 8.87392 28.4519 6.15712C30.5364 4.544 33.1442 3.58112 35.9723 3.58112C38.8004 3.58112 41.4083 4.544 43.4928 6.15712C41.3771 8.87392 40.1107 12.2902 40.1107 16C40.1107 19.7101 41.3771 23.1264 43.4928 25.8429C41.4083 27.4563 38.8004 28.4189 35.9723 28.4189C33.1442 28.4189 30.5364 27.4563 28.4516 25.8429ZM3.56253 16C3.56253 9.15232 9.10482 3.58112 15.917 3.58112C18.7451 3.58112 21.3529 4.544 23.4374 6.15712C21.3217 8.87392 20.0554 12.2902 20.0554 16C20.0554 19.7101 21.3217 23.1264 23.4374 25.8429C21.3529 27.4563 18.7451 28.4189 15.917 28.4189C9.10482 28.4189 3.56253 22.848 3.56253 16ZM25.9446 23.2406C24.4825 21.2006 23.6179 18.7008 23.6179 16C23.6179 13.2995 24.4825 10.7994 25.9446 8.75936C27.4068 10.7994 28.2714 13.2995 28.2714 16C28.2714 18.7008 27.4068 21.2006 25.9446 23.2406ZM46 23.2406C44.5379 21.2006 43.6733 18.7008 43.6733 16C43.6733 13.2995 44.5379 10.7994 46 8.75936C47.4621 10.7994 48.3267 13.2995 48.3267 16C48.3267 18.7008 47.4621 21.2006 46 23.2406ZM66.0554 23.2406C64.5932 21.2006 63.7286 18.7008 63.7286 16C63.7286 13.2995 64.5932 10.7994 66.0554 8.75936C67.5175 10.7994 68.3821 13.2995 68.3821 16C68.3821 18.7008 67.5175 21.2006 66.0554 23.2406ZM76.083 0C72.2846 0 68.7944 1.34624 66.0554 3.58624C63.3164 1.34624 59.8261 0 56.0277 0C52.2293 0 48.739 1.34624 46 3.58624C43.261 1.34624 39.7704 0 35.9723 0C32.1739 0 28.6836 1.34624 25.9446 3.58624C23.2056 1.34624 19.7151 0 15.917 0C7.14035 0 0 7.1776 0 16C0 24.8227 7.14035 32 15.917 32C19.7151 32 23.2056 30.6541 25.9446 28.4138C28.6836 30.6541 32.1739 32 35.9723 32C39.7704 32 43.261 30.6541 46 28.4138C48.739 30.6541 52.2293 32 56.0277 32C59.8261 32 63.3164 30.6541 66.0554 28.4138C68.7944 30.6541 72.2846 32 76.083 32C84.8597 32 92 24.8227 92 16C92 7.1776 84.8597 0 76.083 0Z" fill="white"/>
</g>
</g>
<defs>
<clipPath id="clip0_251_128">
<rect width="92" height="32" fill="white"/>
</clipPath>
</defs>
</svg>
