<svg width="24" height="24" viewBox="0 0 24 24" fill="none" xmlns="http://www.w3.org/2000/svg">
<path d="M12.9701 19.94C14.9503 19.6932 16.7667 18.7152 18.0629 17.1981C19.3591 15.6809 20.0415 13.7341 19.9762 11.7397C19.9109 9.74524 19.1026 7.84724 17.7099 6.41812C16.3172 4.989 14.4407 4.13196 12.4487 4.01518C10.4566 3.89841 8.4928 4.53033 6.94268 5.78694C5.39256 7.04355 4.36802 8.83411 4.07013 10.8072C3.77225 12.7804 4.22252 14.7936 5.33258 16.4518C6.44265 18.11 8.13236 19.2935 10.0701 19.77V14.44H8.42011V12H10.0701V10.95C10.0701 8.22003 11.3001 6.96003 13.9701 6.96003C14.4801 6.96003 15.3601 7.06003 15.7101 7.16003V9.38003C15.4041 9.35591 15.0971 9.3459 14.7901 9.35003C13.4801 9.35003 12.9701 9.85003 12.9701 11.14V12H15.5901L15.1401 14.44H12.9701V19.94Z" fill="white"/>
</svg>
