<svg width="24" height="24" viewBox="0 0 24 24" fill="none" xmlns="http://www.w3.org/2000/svg">
<path d="M12.67 6C13.7 6 13.93 6.01 14.47 6.04C14.969 6.04985 15.4627 6.14453 15.93 6.32C16.33 6.47 16.66 6.67 16.99 7.01C17.33 7.34 17.53 7.68 17.69 8.07C17.83 8.45 17.93 8.89 17.96 9.53C17.99 10.17 18 10.37 18 12C18 13.63 18 13.83 17.96 14.47C17.9502 14.969 17.8555 15.4627 17.68 15.93C17.53 16.33 17.33 16.66 16.99 16.99C16.66 17.33 16.32 17.53 15.93 17.69C15.4621 17.8621 14.9684 17.9534 14.47 17.96C13.83 17.99 13.63 18 12 18C10.37 18 10.17 18 9.53 17.96C9.03097 17.9502 8.53726 17.8555 8.07 17.68C7.67 17.53 7.34 17.33 7.01 16.99C6.7012 16.6927 6.46213 16.3307 6.31 15.93C6.13795 15.4621 6.04665 14.9684 6.04 14.47C6 13.93 6 13.7 6 12.67V11.33C6 10.3 6.01 10.07 6.04 9.53C6.04665 9.03155 6.13795 8.53786 6.31 8.07C6.47 7.67 6.67 7.34 7.01 7.01C7.34 6.67 7.68 6.47 8.07 6.31C8.53786 6.13795 9.03155 6.04665 9.53 6.04C10.07 6.01 10.3 6 11.33 6H12.67ZM12.67 7.08H11.34C10.33 7.08 10.11 7.09 9.58 7.12C8.99 7.14 8.68 7.24 8.46 7.32C8.19902 7.41941 7.9623 7.57343 7.76569 7.77177C7.56908 7.9701 7.41712 8.20816 7.32 8.47C7.24 8.67 7.14 8.99 7.12 9.57C7.09 10.11 7.08 10.33 7.08 11.34V12.66C7.08 13.67 7.09 13.89 7.12 14.42C7.14 15.01 7.24 15.32 7.32 15.54C7.41941 15.801 7.57343 16.0377 7.77177 16.2343C7.9701 16.4309 8.20816 16.5829 8.47 16.68C8.67 16.76 8.99 16.86 9.57 16.88C10.11 16.91 10.33 16.92 11.34 16.92H12.66C13.67 16.92 13.89 16.91 14.42 16.88C15.01 16.86 15.32 16.76 15.54 16.68C15.801 16.5806 16.0377 16.4266 16.2343 16.2282C16.4309 16.0299 16.5829 15.7918 16.68 15.53C16.76 15.33 16.86 15.01 16.88 14.43C16.91 13.89 16.92 13.67 16.92 12.66V11.34C16.92 10.33 16.91 10.11 16.88 9.58C16.86 8.99 16.76 8.68 16.68 8.46C16.5823 8.19986 16.4287 7.96432 16.23 7.77C16.0336 7.56906 15.7943 7.41521 15.53 7.32C15.1774 7.19125 14.8054 7.12362 14.43 7.12C13.89 7.09 13.67 7.08 12.66 7.08H12.67ZM12 8.92C12.8169 8.92 13.6003 9.2445 14.1779 9.82211C14.7555 10.3997 15.08 11.1831 15.08 12C15.08 12.8169 14.7555 13.6003 14.1779 14.1779C13.6003 14.7555 12.8169 15.08 12 15.08C11.1831 15.08 10.3997 14.7555 9.82211 14.1779C9.2445 13.6003 8.92 12.8169 8.92 12C8.92 11.1831 9.2445 10.3997 9.82211 9.82211C10.3997 9.2445 11.1831 8.92 12 8.92ZM12 10C11.4696 10 10.9609 10.2107 10.5858 10.5858C10.2107 10.9609 10 11.4696 10 12C10 12.5304 10.2107 13.0391 10.5858 13.4142C10.9609 13.7893 11.4696 14 12 14C12.5304 14 13.0391 13.7893 13.4142 13.4142C13.7893 13.0391 14 12.5304 14 12C14 11.4696 13.7893 10.9609 13.4142 10.5858C13.0391 10.2107 12.5304 10 12 10ZM15.2 8.08C15.391 8.08 15.5741 8.15586 15.7091 8.29088C15.8441 8.42591 15.92 8.60904 15.92 8.8C15.92 8.99096 15.8441 9.17409 15.7091 9.30912C15.5741 9.44414 15.391 9.52 15.2 9.52C15.009 9.52 14.8259 9.44414 14.6909 9.30912C14.5559 9.17409 14.48 8.99096 14.48 8.8C14.48 8.60904 14.5559 8.42591 14.6909 8.29088C14.8259 8.15586 15.009 8.08 15.2 8.08Z" fill="white"/>
</svg>
