<svg width="24" height="24" viewBox="0 0 24 24" fill="none" xmlns="http://www.w3.org/2000/svg">
<path d="M17.1 6H6.9C6.4 6 6 6.4 6 6.9V17.2C6 17.6 6.4 18 6.9 18H17.1C17.6 18 18 17.6 18 17.1V6.9C18 6.4 17.6 6 17.1 6ZM9.6 16.2H7.8V10.5H9.6V16.2ZM8.7 9.7C8.43478 9.7 8.18043 9.59464 7.99289 9.40711C7.80536 9.21957 7.7 8.96522 7.7 8.7C7.7 8.43478 7.80536 8.18043 7.99289 7.99289C8.18043 7.80536 8.43478 7.7 8.7 7.7C9.2 7.7 9.7 8.2 9.7 8.7C9.7 9.3 9.2 9.7 8.7 9.7ZM16.2 16.2H14.4V13.4C14.4 12.7 14.4 11.9 13.5 11.9C12.6 11.9 12.4 12.6 12.4 13.4V16.2H10.6V10.5H12.3V11.3C12.5 10.9 13.1 10.4 14 10.4C15.8 10.4 16.1 11.6 16.1 13.1V16.2H16.2Z" fill="white"/>
</svg>
