<svg width="24" height="24" viewBox="0 0 24 24" fill="none" xmlns="http://www.w3.org/2000/svg">
<path d="M12.3001 5C8.5001 5 6.6001 7.7 6.6001 10C6.6001 11.4 7.1001 12.6 8.2001 13.1C8.4001 13.2 8.5001 13.1 8.6001 12.9C8.6001 12.8 8.7001 12.4 8.8001 12.3C8.9001 12.1 8.8001 12 8.7001 11.9C8.4001 11.5 8.2001 11 8.2001 10.3C8.2001 8.3 9.7001 6.4 12.2001 6.4C14.4001 6.4 15.5001 7.7 15.5001 9.5C15.5001 11.8 14.5001 13.8 12.9001 13.8C12.1001 13.8 11.4001 13.1 11.6001 12.2C11.8001 11.2 12.3001 10.1 12.3001 9.3C12.3001 8.6 11.9001 8.1 11.2001 8.1C10.3001 8.1 9.6001 9 9.6001 10.2C9.6001 11 9.9001 11.5 9.9001 11.5L8.9001 15.9C8.6001 17.2 8.9001 18.8 8.9001 19H9.1001C9.2001 18.9 10.2001 17.6 10.6001 16.4L11.2001 14.2C11.5001 14.7 12.3001 15.2 13.2001 15.2C15.8001 15.2 17.5001 12.8 17.5001 9.7C17.4001 7.2 15.4001 5 12.3001 5Z" fill="white"/>
</svg>
