<svg width="24" height="24" viewBox="0 0 24 24" fill="none" xmlns="http://www.w3.org/2000/svg">
<path d="M18.9 9.1C18.9 9.1 18.8 8.1 18.3 7.7C17.8 7.1 17.2 7.1 16.9 7.1C14.9 7 12 7 12 7C12 7 9.1 7 7.1 7.1C6.8 7.1 6.2 7.1 5.7 7.7C5.3 8.1 5.1 9.1 5.1 9.1C5.1 9.1 5 10.2 5 11.3V12.4C5 13.5 5.1 14.7 5.1 14.7C5.1 14.7 5.2 15.7 5.7 16.1C6.2 16.7 6.9 16.6 7.2 16.7C8.3 16.8 12 16.8 12 16.8C12 16.8 14.9 16.8 16.9 16.7C17.2 16.7 17.8 16.7 18.3 16.1C18.7 15.7 18.9 14.7 18.9 14.7C18.9 14.7 19 13.6 19 12.4V11.3C19 10.6 18.9 9.8 18.9 9.1ZM10.6 13.7V9.8L14.4 11.8L10.6 13.7Z" fill="white"/>
</svg>
